<?xml version="1.0" standalone="yes"?>

<svg version="1.1" viewBox="0.0 100.0 512.0 312.0" fill="none" stroke="none" stroke-linecap="square" stroke-miterlimit="10" xmlns="http://www.w3.org/2000/svg" xmlns:xlink="http://www.w3.org/1999/xlink"><clipPath id="p.0"><path d="m0 0l512.0 0l0 512.0l-512.0 0l0 -512.0z" clip-rule="nonzero"></path></clipPath><g clip-path="url(#p.0)"><path fill="#000000" fill-opacity="0.0" d="m0 0l512.0 0l0 512.0l-512.0 0z" fill-rule="evenodd"></path><path fill="#db3236" d="m66.04871 157.59845l17.07087 0l0 133.92126l-17.07087 0z" fill-rule="evenodd"></path><path fill="#f4c20d" d="m86.459206 192.33861l0 0c0 -19.186462 15.553696 -34.740158 34.740158 -34.740158l0 0c9.213661 0 18.04995 3.6601105 24.564995 10.175156c6.515045 6.515045 10.175156 15.351334 10.175156 24.565002l0 0c0 19.186447 -15.553696 34.740158 -34.74015 34.740158l0 0c-19.186462 0 -34.740158 -15.553711 -34.740158 -34.740158z" fill-rule="evenodd"></path><path fill="#f4c20d" d="m159.12047 261.8283l0 0c0 -19.186462 15.553696 -34.740158 34.740158 -34.740158l0 0c9.213654 0 18.049957 3.6601105 24.565002 10.175156c6.515045 6.515045 10.175156 15.351334 10.175156 24.565002l0 0c0 19.186462 -15.553696 34.740143 -34.740158 34.740143l0 0c-19.186462 0 -34.740158 -15.55368 -34.740158 -34.740143z" fill-rule="evenodd"></path><path fill="#3cba54" d="m271.53275 222.66586l17.070892 0l0 78.33072l-17.070892 0z" fill-rule="evenodd"></path><path fill="#db3236" d="m313.1287 239.84686l17.070862 0l0 60.629913l-17.070862 0z" fill-rule="evenodd"></path><path fill="#f4c20d" d="m376.4702 274.5873l0 0c0 -19.186462 15.55368 -34.740158 34.740143 -34.740158l0 0c9.213684 0 18.049957 3.6601105 24.565002 10.175156c6.515045 6.515045 10.175171 15.351349 10.175171 24.565002l0 0c0 19.186462 -15.553711 34.740173 -34.740173 34.740173l0 0c-19.186462 0 -34.740143 -15.553711 -34.740143 -34.740173z" fill-rule="evenodd"></path><path fill="#db3236" d="m424.38837 309.36133l17.070862 0l0 44.850403l-17.070862 0z" fill-rule="evenodd"></path><path fill="#3cba54" d="m420.66592 337.33008l0 17.070862l-44.22049 0l0 -17.070862z" fill-rule="evenodd"></path></g></svg>
